# xmcd
#
# Track frame offsets: 
#        150
#        18307
#        32657
#        52420
#        71870
#        86360
#        96550
#        110872
#        131150
#        150280
#
# Disc length: 2234 seconds
#
# Revision: 7
# Processed by: cddbd v1.5.2PL0 Copyright (c) Steve Scherf et al.
# Submitted via: ExactAudioCopy v1.0b3
#
DISCID=8c08b80a
DTITLE=Buddy Guy And Junior Wells - Play The Blues
DYEAR=1972
DGENRE=Blues
TTITLE0=A Man Of Many Words
TTITLE1=My Baby She Left Me (She Left Me A Mule To Ride)
TTITLE2=Come On In This House - Have Mercy Baby
TTITLE3=T-Bone Shuffle
TTITLE4=A Poor Man's Plea
TTITLE5=Messin' With The Kid
TTITLE6=This Old Fool
TTITLE7=I Don't Know
TTITLE8=Bad Bad Whiskey
TTITLE9=Honeydripper
EXTD=
EXTT0=
EXTT1=
EXTT2=
EXTT3=
EXTT4=
EXTT5=
EXTT6=
EXTT7=
EXTT8=
EXTT9=
PLAYORDER=
